<svg xmlns="http://www.w3.org/2000/svg" xmlns:xlink="http://www.w3.org/1999/xlink" viewBox="0,0,256,256" width="50px" height="50px" fill-rule="nonzero"><g fill="#ffffff" fill-rule="nonzero" stroke="none" stroke-width="1" stroke-linecap="butt" stroke-linejoin="miter" stroke-miterlimit="10" stroke-dasharray="" stroke-dashoffset="0" font-family="none" font-weight="none" font-size="none" text-anchor="none" style="mix-blend-mode: normal"><g transform="scale(5.12,5.12)"><path d="M25,3c-12.13843,0 -22,9.86158 -22,22c0,12.13842 9.86157,22 22,22c12.13843,0 22,-9.86158 22,-22c0,-12.13842 -9.86157,-22 -22,-22zM25,5c11.05755,0 20,8.94246 20,20c0,11.05754 -8.94245,20 -20,20c-9.22995,0 -16.96557,-6.23982 -19.27734,-14.73047l6.27734,3.24609c0.00858,3.57107 2.927,6.48438 6.5,6.48438c3.4437,0 6.27205,-2.70848 6.48047,-6.10156c1.61896,-1.20155 4.68684,-3.12848 6.97461,-4.92188c4.47104,-0.23912 8.04492,-3.94757 8.04492,-8.47656c0,-4.68257 -3.81742,-8.5 -8.5,-8.5c-4.529,0 -8.23744,3.57389 -8.47656,8.04492c-1.79384,2.28726 -3.72072,5.35316 -4.92188,6.97266c-1.23296,0.07532 -2.36571,0.50898 -3.32031,1.17969l-9.69531,-5.01367c0.91648,-10.20344 9.46935,-18.18359 19.91406,-18.18359zM31.5,14c3.6017,0 6.5,2.8983 6.5,6.5c0,3.6017 -2.8983,6.5 -6.5,6.5c-3.6017,0 -6.5,-2.8983 -6.5,-6.5c0,-3.6017 2.8983,-6.5 6.5,-6.5zM31.5,16c-1.41667,0 -2.60644,0.56726 -3.37305,1.42969c-0.76661,0.86243 -1.12695,1.97309 -1.12695,3.07031c0,1.09722 0.36035,2.20788 1.12695,3.07031c0.76661,0.86243 1.95638,1.42969 3.37305,1.42969c1.41667,0 2.60644,-0.56726 3.37305,-1.42969c0.76661,-0.86243 1.12695,-1.97309 1.12695,-3.07031c0,-1.09722 -0.36035,-2.20788 -1.12695,-3.07031c-0.76661,-0.86243 -1.95638,-1.42969 -3.37305,-1.42969zM31.5,18c0.91667,0 1.47689,0.30774 1.87695,0.75781c0.40006,0.45007 0.62305,1.08941 0.62305,1.74219c0,0.65278 -0.22299,1.29212 -0.62305,1.74219c-0.40006,0.45007 -0.96029,0.75781 -1.87695,0.75781c-0.91667,0 -1.47689,-0.30774 -1.87695,-0.75781c-0.40006,-0.45007 -0.62305,-1.08941 -0.62305,-1.74219c0,-0.65278 0.22299,-1.29212 0.62305,-1.74219c0.40006,-0.45007 0.96029,-0.75781 1.87695,-0.75781zM23.36328,22.94922c0.82123,2.71775 2.96975,4.86627 5.6875,5.6875c-1.45413,1.02251 -3.04031,2.05704 -4.33594,2.96289c-0.6319,-2.05455 -2.2599,-3.68255 -4.31445,-4.31445c0.90558,-1.29561 1.94006,-2.88177 2.96289,-4.33594zM5.00977,25.39648l13.94922,7.21484c0.50048,0.25866 0.68904,0.84681 0.42969,1.34766h-0.00195c-0.18095,0.35027 -0.52839,0.54102 -0.88867,0.54102c-0.15516,0 -0.30868,-0.03437 -0.45703,-0.11133l-12.84961,-6.64648c-0.10514,-0.76859 -0.16618,-1.55167 -0.18164,-2.3457zM18.5,29c2.49773,0 4.5,2.00227 4.5,4.5c0,2.49773 -2.00227,4.5 -4.5,4.5c-2.10349,0 -3.83915,-1.42703 -4.33984,-3.36719l2.96094,1.53125c0.43765,0.22704 0.91211,0.33594 1.37695,0.33594c1.08772,0 2.13701,-0.59931 2.66602,-1.62305c0.75664,-1.46116 0.17637,-3.28762 -1.28516,-4.04297l-2.97852,-1.54102c0.49604,-0.189 1.03327,-0.29297 1.59961,-0.29297z"></path></g></g></svg>